<?xml version="1.0" standalone="no"?><!DOCTYPE svg PUBLIC "-//W3C//DTD SVG 1.1//EN" "http://www.w3.org/Graphics/SVG/1.1/DTD/svg11.dtd"><svg t="1736519682637" class="icon" viewBox="0 0 1024 1024" version="1.1" xmlns="http://www.w3.org/2000/svg" p-id="2983" id="mx_n_1736519682637" xmlns:xlink="http://www.w3.org/1999/xlink" width="200" height="200"><path d="M823.25 907.59h-622.5c-76.45 0-138.65-58.8-138.65-131.08V343.68c0-72.28 62.2-131.09 138.65-131.09h93.57c1.07-0.02 3.02-0.27 4.86-0.61l61.03-74.06 2.1-1.85c17.65-15.52 45.33-19.66 58.9-19.66h201.65c19.77 0 36.88 7.18 52.31 21.95l2.05 1.96 53.84 71.5c2.18 0.42 4.56 0.75 5.84 0.77h86.33c76.45 0 138.65 58.8 138.65 131.09V776.5c0.01 72.28-62.18 131.09-138.63 131.09z m-622.5-625.2c-37.96 0-68.85 27.49-68.85 61.29V776.5c0 33.79 30.89 61.29 68.85 61.29h622.49c37.96 0 68.85-27.49 68.85-61.29V343.68c0-33.79-30.88-61.29-68.85-61.29h-86.39c-1.4 0-34.6-0.2-52.36-17.16l-2.06-1.97-57.25-76.03c-0.76-0.62-1.19-0.88-1.35-0.97-0.13-0.02-0.43-0.05-0.96-0.05H421.22c-3.9 0-9.34 1.28-12.35 2.42l-63.03 76.49-2.11 1.85c-17.34 15.24-48.1 15.41-49.4 15.41h-93.58z m206.52-93.03zM512 785.77c-66.09 0-128.23-25.74-174.96-72.47-46.73-46.73-72.47-108.87-72.47-174.96s25.74-128.23 72.47-174.96c46.73-46.73 108.87-72.47 174.96-72.47s128.23 25.74 174.96 72.47c46.73 46.73 72.47 108.87 72.47 174.96s-25.74 128.23-72.47 174.96S578.09 785.77 512 785.77z m0-425.06c-97.95 0-177.63 79.69-177.63 177.63 0 97.95 79.69 177.63 177.63 177.63 97.95 0 177.63-79.69 177.63-177.63S609.95 360.71 512 360.71z" fill="#000000" p-id="2984"></path></svg>